 http://www.imdb.com/title/tt1772341/

Format                                   : Matroska
Format version                           : Version 4 / Version 2
File size                                : 3.42 GiB
Duration                                 : 1h 41mn
Overall bit rate                         : 4 840 Kbps
Encoded date                             : UTC 2013-02-12 11:46:23
Writing application                      : mkvmerge v6.0.0 ('Coming Up For Air') built on Jan 20 2013 09:52:00
Writing library                          : libebml v1.3.0 + libmatroska v1.4.0

Video
ID                                       : 1
Format                                   : AVC
Format/Info                              : Advanced Video Codec
Format profile                           : High@L4.0
Format settings, CABAC                   : Yes
Format settings, ReFrames                : 5 frames
Codec ID                                 : V_MPEG4/ISO/AVC
Duration                                 : 1h 41mn
Bit rate                                 : 4 360 Kbps
Width                                    : 1 916 pixels
Height                                   : 800 pixels
Display aspect ratio                     : 2.40:1
Frame rate                               : 23.976 fps
Color space                              : YUV
Chroma subsampling                       : 4:2:0
Bit depth                                : 8 bits
Scan type                                : Progressive
Bits/(Pixel*Frame)                       : 0.119
Stream size                              : 3.08 GiB (90%)
Language                                 : English
Color primaries                          : BT.709-5, BT.1361, IEC 61966-2-4, SMPTE RP177
Transfer characteristics                 : BT.709-5, BT.1361
Matrix coefficients                      : BT.709-5, BT.1361, IEC 61966-2-4 709, SMPTE RP177

Audio
ID                                       : 2
Format                                   : AC-3
Format/Info                              : Audio Coding 3
Mode extension                           : CM (complete main)
Codec ID                                 : A_AC3
Duration                                 : 1h 41mn
Bit rate mode                            : Constant
Bit rate                                 : 384 Kbps
Channel(s)                               : 6 channels
Channel positions                        : Front: L C R, Side: L R, LFE
Sampling rate                            : 48.0 KHz
Bit depth                                : 16 bits
Compression mode                         : Lossy
Stream size                              : 278 MiB (8%)
Language                                 : English

Text
ID                                       : 3
Format                                   : UTF-8
Codec ID                                 : S_TEXT/UTF8
Codec ID/Info                            : UTF-8 Plain Text
Title                                    : CC
Language                                 : English

 
http://www.shotpix.com/images/78009041139709423821.png 
http://www.shotpix.com/images/07078076062904601855.png 
http://www.shotpix.com/images/69720037750965740287.png